<svg width="638" height="443" viewBox="0 0 638 443" fill="none" xmlns="http://www.w3.org/2000/svg">
<g clip-path="url(#clip0)">
<path d="M74.3503 383.781C74.3503 383.781 -6.79938 346.367 21.7084 320.421C50.2163 294.476 74.3503 383.781 74.3503 383.781Z" fill="#E6E6E6"/>
<path d="M72.9379 392.511C72.9379 392.511 35.6385 269.77 90.5633 275.64C145.488 281.51 72.9379 392.511 72.9379 392.511Z" fill="#E6E6E6"/>
<path d="M45.7425 381.626L47.308 402.158L47.3328 402.512C47.3314 405.719 47.4931 408.923 47.8174 412.113C49.942 433.055 59.0741 442.6 69.7469 442.6C80.4197 442.6 89.1542 433.055 91.2788 412.113C91.6031 408.923 91.7648 405.719 91.7634 402.512L91.7758 402.226L91.782 402.158L93.3537 381.626H45.7425Z" fill="#E6E6E6"/>
<path d="M91.782 402.158L91.7758 402.226L91.7634 402.512C91.7648 405.719 91.6031 408.923 91.2788 412.113H47.8174C47.4931 408.923 47.3314 405.719 47.3328 402.512L47.308 402.158H91.782Z" fill="white"/>
<path d="M603.629 396.338C603.629 396.338 540.802 367.371 562.873 347.283C584.944 327.196 603.629 396.338 603.629 396.338Z" fill="#E6E6E6"/>
<path d="M602.536 403.097C602.536 403.097 573.658 308.069 616.181 312.613C658.705 317.158 602.536 403.097 602.536 403.097Z" fill="#E6E6E6"/>
<path d="M581.481 394.669L582.693 410.565L582.712 410.84C582.711 413.322 582.836 415.803 583.087 418.272C584.732 434.487 591.802 441.876 600.065 441.876C608.328 441.876 615.091 434.487 616.735 418.272C616.987 415.803 617.112 413.322 617.111 410.84L617.12 410.618L617.125 410.565L618.342 394.669H581.481Z" fill="#E6E6E6"/>
<path d="M617.125 410.565L617.12 410.618L617.111 410.84C617.112 413.322 616.986 415.803 616.735 418.272H583.087C582.836 415.803 582.711 413.322 582.712 410.84L582.693 410.565H617.125Z" fill="white"/>
<path d="M211.51 132.135V104.21H207.174V132.135C205.931 132.639 204.901 133.56 204.261 134.741C203.621 135.922 203.412 137.289 203.668 138.608C203.924 139.926 204.63 141.115 205.666 141.969C206.701 142.824 208.001 143.291 209.342 143.291C210.684 143.291 211.983 142.824 213.019 141.969C214.054 141.115 214.76 139.926 215.016 138.608C215.273 137.289 215.063 135.922 214.423 134.741C213.783 133.56 212.753 132.639 211.51 132.135Z" fill="#E6E6E6"/>
<path d="M221.626 413.946H192V53.5524H180.439V413.946H150.813C147.302 413.946 143.826 414.638 140.582 415.984C137.338 417.329 134.391 419.302 131.909 421.788C129.426 424.275 127.457 427.226 126.113 430.475C124.77 433.724 124.078 437.206 124.078 440.722V440.722H248.361V440.722C248.361 437.206 247.67 433.724 246.326 430.475C244.983 427.226 243.013 424.275 240.531 421.788C238.048 419.302 235.101 417.329 231.857 415.984C228.613 414.638 225.137 413.946 221.626 413.946Z" fill="#E6E6E6"/>
<path d="M124.138 107.105H248.301L240.709 12.0563C240.431 8.77882 238.939 5.72401 236.526 3.49284C234.113 1.26168 230.953 0.0156688 227.669 -3.05176e-05H144.77C141.486 0.015668 138.327 1.26167 135.914 3.49283C133.5 5.724 132.008 8.77879 131.731 12.0563L124.138 107.105Z" fill="#064420"/>
<path d="M297.019 273.928C295.851 273.733 294.656 273.773 293.503 274.045C292.351 274.317 291.264 274.815 290.305 275.511C289.347 276.207 288.536 277.087 287.92 278.1C287.304 279.112 286.895 280.237 286.716 281.41L283.221 304.386L295.114 307.545L303.829 286.138C304.336 284.894 304.556 283.552 304.474 282.211C304.392 280.87 304.01 279.565 303.356 278.393C302.702 277.22 301.792 276.21 300.695 275.437C299.599 274.664 298.342 274.148 297.019 273.928Z" fill="#A0616A"/>
<path d="M296.797 304.343C303.397 330.614 300.556 354.643 275.977 373.51C246.497 365.371 226.889 345.733 214.926 317.194C214.182 315.42 213.805 313.513 213.818 311.588C213.83 309.664 214.232 307.762 214.998 305.997C215.765 304.232 216.881 302.642 218.278 301.321C219.676 300 221.326 298.976 223.129 298.312C225.839 297.314 228.788 297.166 231.583 297.888C234.379 298.609 236.889 300.166 238.779 302.351L267.705 335.788L281.275 302.073L296.797 304.343Z" fill="#064420"/>
<path d="M447.844 442.174C420.926 440.742 404.204 431.485 400.154 412.503L404.49 404.543L454.127 427.19C455.38 427.762 456.435 428.694 457.158 429.867C457.881 431.041 458.239 432.404 458.187 433.782C458.134 435.16 457.674 436.492 456.864 437.607C456.054 438.723 454.932 439.572 453.639 440.046L447.844 442.174Z" fill="#E6E6E6"/>
<path d="M427.045 442.364C413.059 441.94 399.608 442.072 386.863 442.936C384.628 443.089 382.422 442.353 380.725 440.888C379.028 439.422 377.976 437.346 377.797 435.109L377.032 425.53L366.193 408.161L375.587 398.753C391.373 414.5 408.686 427.726 429.248 435.588C429.908 436.042 430.405 436.697 430.663 437.457C430.92 438.216 430.926 439.039 430.678 439.802C430.43 440.565 429.942 441.226 429.287 441.688C428.632 442.15 427.846 442.387 427.045 442.364Z" fill="#E6E6E6"/>
<path d="M351.019 374.148C333.16 406.154 315.595 427.73 292.49 439.28C264.065 448.676 243.29 436.227 227.097 410.694L274.065 379.576L280.929 386.451L343.142 339.036C344.661 337.595 346.687 336.813 348.78 336.86C350.872 336.906 352.861 337.778 354.315 339.285L407.38 404.543L400.877 415.398L351.019 374.148Z" fill="#2F2E41"/>
<path d="M366.916 411.78L342.348 374.148L348.129 363.293L380.645 397.306L366.916 411.78Z" fill="#2F2E41"/>
<path d="M225.291 291.649C238.859 291.649 249.858 280.632 249.858 267.043C249.858 253.454 238.859 242.438 225.291 242.438C211.722 242.438 200.723 253.454 200.723 267.043C200.723 280.632 211.722 291.649 225.291 291.649Z" fill="#A0616A"/>
<path d="M231.794 312.635L204.336 303.227C208.399 296.761 210.18 289.117 209.394 281.517H231.794C230.52 292.559 230.329 303.032 231.794 312.635Z" fill="#A0616A"/>
<path d="M290.323 378.49C286.206 380.183 285.905 385.671 282.013 387.536C263.198 396.552 243.291 403.868 229.626 416.845C197.693 395.128 168.095 327.675 206.504 298.162C219.614 305.845 231.325 311.343 231.071 298.162L290.323 378.49Z" fill="#064420"/>
<path opacity="0.2" d="M273.703 349.543L260.336 344.839L233.962 365.464L222.139 322.837C221.319 319.88 219.99 321.379 218.082 323.433C216.094 321.589 213.62 320.354 210.954 319.872C208.287 319.39 205.538 319.682 203.032 320.713C200.525 321.744 198.365 323.472 196.807 325.692C195.248 327.912 194.356 330.532 194.236 333.243C192.829 364.163 202.139 390.323 225.291 410.332C255.572 403.839 268.423 383.349 273.703 356.78L272.272 355.824C272.799 353.771 273.277 351.677 273.703 349.543Z" fill="black"/>
<path d="M228.597 234.676C236.7 236.53 245.924 239.158 246.441 241.6C254.777 243.703 261.069 248.743 262.354 256.425C262.461 257.089 262.422 257.769 262.239 258.416C262.056 259.063 261.733 259.662 261.294 260.171C260.854 260.68 260.309 261.086 259.696 261.36C259.083 261.635 258.417 261.772 257.745 261.761C253.212 261.703 246.406 261.268 241.912 259.388C228.858 267.812 226.666 289.724 232.367 304.638L223.396 303.814L214.115 276.602L211.744 302.745L191.271 300.034L193.908 266.698C194.719 258.841 197.389 251.29 201.696 244.674C202.144 244.009 202.633 243.374 203.162 242.773C206.276 239.249 210.285 236.635 214.764 235.209C219.242 233.784 224.022 233.6 228.597 234.676Z" fill="#2F2E41"/>
<path d="M274.785 317.282L297.27 343.757L330.997 303.892L308.208 276.199L274.785 317.282Z" fill="#3F3D56"/>
<path d="M325.223 304.805L298.485 282.895C300.004 279.243 307.296 280.46 307.296 280.46L328.227 301.712C328.956 302.452 329.581 303.288 330.085 304.196L325.223 304.805Z" fill="#F2F2F2"/>
<path d="M326.439 303.283L296.054 279.547L262.327 330.671L294.079 352.125C297.118 353.343 300.156 351.212 300.156 351.212L331.148 303.74L326.439 303.283Z" fill="#3F3D56"/>
<path d="M299.843 286.956L299.556 287.356L319.003 301.352L319.291 300.952L299.843 286.956Z" fill="#064420"/>
<path d="M319.549 306.19L294.026 344.838L294.436 345.11L319.959 306.462L319.549 306.19Z" fill="#064420"/>
<path d="M270.679 330.774L270.387 331.171L291.044 346.393L291.336 345.996L270.679 330.774Z" fill="#064420"/>
<path d="M296.156 287.623L269.721 325.662L270.125 325.943L296.56 287.904L296.156 287.623Z" fill="#064420"/>
<path d="M304.321 280.158L304.116 280.383L328.159 302.482L328.364 302.258L304.321 280.158Z" fill="#B3B3B3"/>
<path d="M302.318 280.348L302.117 280.576L327.245 302.794L327.447 302.565L302.318 280.348Z" fill="#B3B3B3"/>
<path d="M300.746 280.791L300.552 281.025L326.637 302.801L326.832 302.567L300.746 280.791Z" fill="#B3B3B3"/>
<path d="M286.922 325.054C285.95 324.377 284.853 323.9 283.696 323.651C282.538 323.402 281.343 323.385 280.179 323.603C279.015 323.82 277.906 324.267 276.916 324.917C275.926 325.568 275.074 326.408 274.411 327.391L261.42 346.648L270.813 354.609L287.849 339.01C288.839 338.103 289.612 336.985 290.112 335.739C290.612 334.492 290.825 333.149 290.736 331.809C290.647 330.468 290.258 329.165 289.598 327.996C288.937 326.827 288.023 325.821 286.922 325.054Z" fill="#A0616A"/>
<path d="M273.703 352.438C268.423 379.007 255.572 399.497 225.291 405.99C202.139 385.981 192.829 359.822 194.236 328.901C194.323 326.979 194.799 325.094 195.634 323.361C196.468 321.627 197.645 320.081 199.093 318.816C200.541 317.551 202.23 316.593 204.058 315.999C205.886 315.406 207.815 315.189 209.729 315.363C212.604 315.625 215.331 316.757 217.548 318.609C219.765 320.462 221.366 322.946 222.139 325.732L233.962 368.359L260.652 343.723L273.703 352.438Z" fill="#064420"/>
<path d="M637.715 443H0V441.421H638L637.715 443Z" fill="#3F3D56"/>
<path d="M333.316 66.2218C332.933 66.2222 332.566 66.3748 332.295 66.6462C332.024 66.9175 331.871 67.2854 331.871 67.6692V180.563C331.871 180.947 332.024 181.315 332.295 181.586C332.566 181.858 332.933 182.01 333.316 182.011H427.251C427.634 182.01 428.002 181.858 428.272 181.586C428.543 181.315 428.696 180.947 428.696 180.563V67.6692C428.696 67.2855 428.543 66.9176 428.272 66.6462C428.002 66.3749 427.634 66.2223 427.251 66.2218H333.316Z" fill="#E6E6E6"/>
<path d="M343.071 170.794H417.496V77.4389H343.071V170.794Z" fill="white"/>
<path d="M489.705 95.8927C489.477 95.893 489.257 95.9841 489.096 96.1461C488.934 96.3081 488.843 96.5277 488.843 96.7568V152.923C488.843 153.152 488.934 153.372 489.096 153.534C489.257 153.696 489.477 153.787 489.705 153.787H557.002C557.231 153.787 557.45 153.696 557.612 153.534C557.774 153.372 557.865 153.152 557.865 152.923V96.7569C557.865 96.5278 557.774 96.3082 557.612 96.1462C557.45 95.9842 557.231 95.8931 557.002 95.8928L489.705 95.8927Z" fill="#E6E6E6"/>
<path d="M495.529 102.589V147.09H551.178V102.589H495.529Z" fill="white"/>
<path d="M393.425 74.1823H367.142C366.507 74.1848 365.883 74.0192 365.332 73.7022C364.781 73.3852 364.324 72.9281 364.006 72.3772C363.689 71.8263 363.522 71.2011 363.524 70.565C363.525 69.9289 363.694 69.3044 364.014 68.7547L377.155 45.9587C377.165 45.94 377.177 45.9213 377.188 45.9025C377.475 45.4177 377.872 45.0077 378.348 44.7061C378.823 44.4044 379.363 44.2197 379.924 44.1669L379.943 44.1651C380.055 44.1548 380.169 44.1495 380.284 44.1495C380.918 44.1458 381.543 44.3114 382.093 44.6293C382.643 44.9473 383.098 45.4061 383.412 45.9587L396.554 68.7547C396.871 69.3048 397.037 69.9287 397.037 70.5639C397.037 71.199 396.87 71.823 396.553 72.373C396.236 72.923 395.78 73.3798 395.231 73.6974C394.682 74.015 394.059 74.1823 393.425 74.1823ZM366.417 70.5604C366.418 70.6887 366.452 70.8146 366.516 70.9257C366.579 71.0366 366.67 71.1287 366.78 71.1923C366.89 71.256 367.015 71.2889 367.142 71.2876H393.425C393.552 71.2889 393.677 71.2561 393.787 71.1924C393.897 71.1288 393.988 71.0367 394.051 70.9257C394.115 70.8147 394.149 70.689 394.15 70.5607C394.149 70.4346 394.115 70.3109 394.051 70.2024L380.909 47.4061C380.846 47.2961 380.755 47.2047 380.645 47.1412C380.535 47.0777 380.41 47.0443 380.283 47.0443C380.157 47.0443 380.032 47.0777 379.922 47.1412C379.812 47.2047 379.721 47.2961 379.658 47.4061L366.516 70.2021C366.452 70.3105 366.418 70.4342 366.417 70.5604Z" fill="#E6E6E6"/>
<path d="M380.284 51.0245C381.481 51.0245 382.451 50.0525 382.451 48.8535C382.451 47.6544 381.481 46.6824 380.284 46.6824C379.086 46.6824 378.116 47.6544 378.116 48.8535C378.116 50.0525 379.086 51.0245 380.284 51.0245Z" fill="#E6E6E6"/>
<path d="M530.478 97.7019H516.229C515.885 97.7033 515.546 97.6135 515.247 97.4416C514.949 97.2698 514.701 97.022 514.529 96.7233C514.357 96.4246 514.266 96.0856 514.267 95.7408C514.268 95.3959 514.359 95.0573 514.533 94.7593L521.657 82.4L521.675 82.3695C521.831 82.1067 522.046 81.8844 522.304 81.7209C522.562 81.5573 522.855 81.4571 523.159 81.4285L523.169 81.4276C523.23 81.422 523.292 81.4191 523.354 81.4191C523.698 81.4171 524.036 81.5068 524.335 81.6792C524.633 81.8516 524.88 82.1004 525.05 82.4L532.175 94.7593C532.347 95.0575 532.437 95.3958 532.437 95.7402C532.437 96.0845 532.347 96.4228 532.175 96.721C532.003 97.0192 531.755 97.2669 531.458 97.439C531.16 97.6112 530.822 97.7019 530.478 97.7019ZM515.836 95.7383C515.836 95.8078 515.855 95.8761 515.89 95.9363C515.923 95.9965 515.973 96.0464 516.032 96.0809C516.092 96.1154 516.16 96.1332 516.229 96.1325H530.478C530.547 96.1333 530.615 96.1154 530.675 96.0809C530.735 96.0464 530.784 95.9965 530.818 95.9363C530.852 95.8761 530.871 95.808 530.872 95.7384C530.871 95.67 530.853 95.603 530.818 95.5442L523.693 83.1847C523.659 83.1251 523.609 83.0755 523.55 83.0411C523.49 83.0067 523.422 82.9885 523.354 82.9885C523.285 82.9885 523.217 83.0067 523.158 83.0411C523.098 83.0755 523.049 83.1251 523.014 83.1847L515.89 95.544C515.855 95.6028 515.836 95.6699 515.836 95.7383Z" fill="#E6E6E6"/>
<path d="M523.354 85.1465C524.003 85.1465 524.529 84.6195 524.529 83.9695C524.529 83.3194 524.003 82.7924 523.354 82.7924C522.705 82.7924 522.178 83.3194 522.178 83.9695C522.178 84.6195 522.705 85.1465 523.354 85.1465Z" fill="#E6E6E6"/>
<path d="M343.922 135.247C344.961 132.859 346.474 130.708 348.37 128.926C350.266 127.143 352.505 125.766 354.95 124.879C357.493 123.896 360.217 123.475 362.938 123.644C365.658 123.814 368.309 124.57 370.711 125.861C376.35 128.858 380.858 133.57 386.584 136.439C392.152 139.202 398.28 140.647 404.494 140.664C411.53 140.719 418.456 138.919 424.577 135.444C424.815 135.293 424.985 135.056 425.052 134.783C425.118 134.509 425.076 134.22 424.934 133.977C424.792 133.734 424.562 133.555 424.291 133.479C424.02 133.403 423.73 133.435 423.483 133.569C417.935 136.682 411.705 138.373 405.347 138.49C398.989 138.607 392.701 137.146 387.043 134.239C381.298 131.222 376.745 126.35 370.893 123.523C368.408 122.316 365.709 121.614 362.952 121.459C360.194 121.304 357.434 121.699 354.83 122.62C351.935 123.593 349.279 125.17 347.039 127.247C344.798 129.324 343.023 131.855 341.832 134.67C341.306 135.963 343.402 136.526 343.922 135.247V135.247Z" fill="#E6E6E6"/>
<path d="M342.209 155.541C354.239 152.851 366.718 152.895 378.729 155.668C389.399 158.146 400.413 162.604 411.414 159.279C416.328 157.794 420.833 154.823 423.357 150.25C424.033 149.027 422.162 147.93 421.486 149.154C416.732 157.764 405.594 159.217 396.798 157.804C390.92 156.86 385.256 154.967 379.47 153.613C367.033 150.692 354.096 150.636 341.633 153.448C340.272 153.752 340.848 155.846 342.209 155.541Z" fill="#E6E6E6"/>
<path d="M341.428 107.012C352.963 105.047 364.777 105.468 376.142 108.249C386.761 110.855 397.14 116.807 408.367 115.779C413.565 115.303 418.711 113.389 422.243 109.406C423.166 108.364 421.638 106.823 420.71 107.871C417.664 111.306 413.276 113.087 408.774 113.568C403.584 114.123 398.486 113.046 393.546 111.516C388.079 109.822 382.768 107.677 377.209 106.277C365.318 103.287 352.933 102.824 340.852 104.919C339.48 105.153 340.062 107.246 341.428 107.012Z" fill="#E6E6E6"/>
<path d="M505.22 101.856C510.204 106.968 513.641 113.387 515.135 120.373C516.284 125.93 516.155 131.677 514.756 137.176C513.358 142.676 510.728 147.784 507.066 152.115C506.168 153.174 507.694 154.717 508.599 153.65C513.588 147.762 516.774 140.557 517.774 132.9C518.503 126.989 517.89 120.989 515.982 115.349C514.074 109.708 510.919 104.571 506.753 100.321C505.774 99.3219 504.242 100.857 505.22 101.856Z" fill="#E6E6E6"/>
<path d="M537.744 97.2235C531.1 102.103 527.381 109.98 526.858 118.127C526.313 126.604 529.541 134.791 534.739 141.372C537.772 145.162 541.395 148.437 545.468 151.072C546.639 151.839 547.726 149.96 546.562 149.198C539.926 144.849 534.247 138.671 531.231 131.257C529.761 127.735 528.999 123.958 528.988 120.141C528.977 116.324 529.718 112.542 531.168 109.012C532.792 105.08 535.441 101.656 538.838 99.0981C539.951 98.2803 538.871 96.3955 537.744 97.2235Z" fill="#E6E6E6"/>
<path d="M385.342 119.051C390.929 119.051 395.458 114.515 395.458 108.919C395.458 103.324 390.929 98.7875 385.342 98.7875C379.755 98.7875 375.225 103.324 375.225 108.919C375.225 114.515 379.755 119.051 385.342 119.051Z" fill="#E6E6E6"/>
</g>
<defs>
<clipPath id="clip0">
<rect width="638" height="443" fill="white"/>
</clipPath>
</defs>
</svg>
