<svg width="199" height="158" viewBox="0 0 199 158" fill="none" xmlns="http://www.w3.org/2000/svg">
<g clip-path="url(#clip0)">
<path opacity="0.1" d="M116.707 26.7012C104.115 26.264 92.1204 22.205 80.6689 17.7632C69.2173 13.3215 57.8746 8.39975 45.5845 6.04674C37.6797 4.53311 28.6387 4.31938 22.2709 8.55131C16.1404 12.6317 14.1598 19.6558 13.0956 26.1805C12.294 31.0886 11.8232 36.2532 14.0197 40.8485C15.5431 44.0389 18.2494 46.7203 20.1191 49.7864C26.6309 60.4187 22.0296 73.5304 14.973 83.912C11.6656 88.7832 7.8231 93.4329 5.27052 98.613C2.71795 103.793 1.53504 109.737 3.76855 115.026C5.98455 120.272 11.2629 124.205 16.9789 126.974C28.592 132.599 42.2712 134.208 55.6197 135.119C85.1592 137.138 114.854 136.263 144.472 135.389C155.433 135.064 166.441 134.736 177.223 133.044C183.212 132.103 189.393 130.613 193.741 127.011C199.259 122.439 200.626 114.696 196.93 108.964C190.725 99.3475 173.583 96.9595 169.241 86.6381C166.855 80.9586 169.307 74.6321 172.774 69.3625C180.214 58.0618 192.683 48.1465 193.34 35.2292C193.792 26.3554 187.795 17.4718 178.527 13.2729C168.813 8.85637 155.338 9.41596 148.174 16.7004C140.793 24.2064 127.823 27.0859 116.707 26.7012Z" fill="#064420"/>
<path d="M84.7196 134.167L18.1268 133.842L11.5099 118.343L34.9073 116.646L30.8294 99.6526L77.1066 93.6622L32.7925 78.2772L36.7069 77.3484L107.963 88.9581L104.039 115.479L98.4299 130.053L84.7196 134.167Z" fill="#064420"/>
<path d="M19.1483 127.351C19.1483 127.351 23.2339 126.698 25.6853 129.581C25.6853 129.581 23.8876 130.996 20.0199 129.037L19.1483 127.351Z" fill="#064420"/>
<path d="M18.7202 127.286C18.7202 127.286 16.1132 130.49 17.3972 134.058C17.3972 134.058 19.5218 133.209 19.7533 128.884L18.7202 127.286Z" fill="#064420"/>
<path d="M16.3777 122.019C16.3777 122.019 18.012 119.025 24.5491 123.216C24.5491 123.216 23.6775 125.229 20.7903 125.066C17.9031 124.902 17.1404 123.597 16.3777 122.019Z" fill="#064420"/>
<path d="M15.9556 121.803C15.9556 121.803 12.5645 121.415 12.2357 129.167C12.2357 129.167 14.3855 129.612 15.9128 127.16C17.44 124.708 16.8136 123.332 15.9556 121.803Z" fill="#064420"/>
<path d="M13.9808 115.618C13.9808 115.618 15.8875 110.341 22.8059 114.095C22.8059 114.095 21.2261 118.937 14.689 117.414L13.9808 115.618Z" fill="#064420"/>
<path d="M11.8563 107.73C11.8563 107.73 15.4517 102.398 21.8253 107.341C21.8253 107.341 19.5918 112.346 12.401 109.626L11.8563 107.73Z" fill="#064420"/>
<path d="M11.0936 100.222C11.0936 100.222 15.2883 95.3234 21.5997 100.222C21.5997 100.222 17.6229 104.52 11.0936 101.473V100.222Z" fill="#064420"/>
<path d="M10.4399 92.9296C10.4399 92.9296 14.689 87.8156 20.7358 92.6576C20.7358 92.6576 15.9419 97.1732 10.4399 94.1265V92.9296Z" fill="#064420"/>
<path d="M10.8212 86.4554C10.8212 86.4554 15.296 79.8724 20.9537 84.3336C20.9537 84.3336 16.1599 89.9917 10.8212 87.7067V86.4554Z" fill="#064420"/>
<path d="M11.8563 78.8931C11.8563 78.8931 16.5957 72.3645 22.0977 77.3698C22.0977 77.3698 16.4867 83.0279 11.8563 80.09V78.8931Z" fill="#064420"/>
<path d="M13.4361 72.1333C13.4361 72.1333 19.0471 65.9972 23.9421 68.4415C23.9421 68.4415 18.0957 74.9585 13.1909 73.7616L13.4361 72.1333Z" fill="#064420"/>
<path d="M15.3972 65.7252C15.3972 65.7252 21.872 58.2095 25.6386 60.7199C25.6386 60.7199 20.8681 66.549 14.938 67.1319L15.3972 65.7252Z" fill="#064420"/>
<path d="M18.228 58.293C18.228 58.293 23.8954 52.1569 28.0356 53.6803C28.0356 53.6803 23.1872 60.0457 17.4673 60.2089L18.228 58.293Z" fill="#064420"/>
<path d="M20.7903 51.3409C20.7903 51.3409 27.055 45.4651 29.7788 46.4988C29.7788 46.4988 25.2573 53.0274 20.5179 52.6466L20.7903 51.3409Z" fill="#064420"/>
<path d="M23.2962 44.9211C23.2962 44.9211 28.6893 37.9009 31.6329 38.4449C31.6329 38.4449 28.3624 44.7035 23.2962 45.6342V44.9211Z" fill="#064420"/>
<path d="M26.0161 36.2649C26.0161 36.2649 30.7827 30.8846 33.3586 30.8962C33.3586 30.8962 29.5959 38.0855 25.8196 38.0194L26.0161 36.2649Z" fill="#064420"/>
<path d="M27.627 30.5018L32.2322 19.2944C32.2322 19.2944 32.4617 29.4253 27.0414 32.5808L27.627 30.5018Z" fill="#064420"/>
<path d="M29.4967 18.1421C29.4967 18.1421 30.2594 8.78253 29.7691 8.02086C29.7691 8.02086 33.061 15.8027 29.4656 22.2769L29.4967 18.1421Z" fill="#064420"/>
<path d="M13.8018 115.494C13.8018 115.494 9.02741 112.539 5.93591 119.769C5.93591 119.769 10.185 122.586 14.3641 117.338L13.8018 115.494Z" fill="#064420"/>
<path d="M11.7026 107.429C11.7026 107.429 5.84644 104.761 3.00592 112.31C3.00592 112.31 7.52936 115.418 12.2357 109.337L11.7026 107.429Z" fill="#064420"/>
<path d="M10.8212 100.671C10.8212 100.671 6.62659 95.7723 0.315186 100.671C0.315186 100.671 4.29192 104.969 10.8212 101.922V100.671Z" fill="#064420"/>
<path d="M10.2959 92.9296C10.2959 92.9296 6.04681 87.8156 0 92.6576C0 92.6576 4.79387 97.1732 10.2959 94.1265V92.9296Z" fill="#064420"/>
<path d="M10.8212 86.6419C10.8212 86.6419 7.8406 79.2681 1.36188 82.4392C1.36188 82.4392 4.86389 88.9775 10.5566 87.8661L10.8212 86.6419Z" fill="#064420"/>
<path d="M12.2317 78.8562C12.2317 78.8562 9.26865 71.3541 2.69849 74.8322C2.69849 74.8322 6.72191 81.7086 11.9399 80.0143L12.2317 78.8562Z" fill="#064420"/>
<path d="M14.0683 72.1702C14.0683 72.1702 12.901 63.9454 7.45343 63.2089C7.45343 63.2089 8.60909 71.8827 13.3349 73.6528L14.0683 72.1702Z" fill="#064420"/>
<path d="M15.5353 65.7407C15.5353 65.7407 15.0801 55.8312 10.5761 55.4854C10.5761 55.4854 10.7279 63.0069 15.0276 67.1436L15.5353 65.7407Z" fill="#064420"/>
<path d="M18.6949 58.0152C18.6949 58.0152 17.3525 49.7748 13.0528 48.7683C13.0528 48.7683 13.5859 56.7483 18.2688 60.0379L18.6949 58.0152Z" fill="#064420"/>
<path d="M21.3 51.4089C21.3 51.4089 21.2553 42.8245 18.6288 41.5635C18.6288 41.5635 17.0003 49.3357 20.5393 52.5047L21.3 51.4089Z" fill="#064420"/>
<path d="M23.4965 44.8239C23.4965 44.8239 23.1288 35.985 20.4089 34.7395C20.4089 34.7395 19.479 41.7345 23.0899 45.4029L23.4965 44.8239Z" fill="#064420"/>
<path d="M26.3955 36.9702C26.3955 36.9702 26.3799 29.7809 24.4382 28.0944C24.4382 28.0944 22.5082 35.9695 25.3818 38.4158L26.3955 36.9702Z" fill="#064420"/>
<path d="M27.3993 30.1482L25.5102 18.183C25.5102 18.183 22.944 27.9875 27.4888 32.3088L27.3993 30.1482Z" fill="#064420"/>
<path d="M27.7671 18.2548C27.7671 18.2548 22.9188 10.2107 23.018 9.31686C23.018 9.31686 23.5336 17.7477 29.6329 21.9466L27.7671 18.2548Z" fill="#064420"/>
<path d="M28.3352 15.8785C28.3352 15.8785 23.7592 4.45345 21.6891 3.52856C21.6891 3.52856 28.2262 6.84727 28.7165 15.5521L28.3352 15.8785Z" fill="#064420"/>
<path d="M25.7962 38.0874L25.483 37.9922C29.3449 25.4149 30.308 17.396 28.197 15.385L28.4208 15.1479C30.6601 17.2697 29.7515 25.2012 25.7962 38.0874Z" fill="#444053"/>
<path d="M15.1618 67.5361L14.6987 67.3709C15.1092 66.2187 15.5509 65.049 16.0139 63.8968C20.0451 53.8629 23.4771 44.5286 25.6775 37.3626L26.0803 37.1683C23.876 44.3479 20.5043 54.0397 16.4692 64.0872C16.0081 65.218 15.5684 66.3819 15.1618 67.5361Z" fill="#444053"/>
<path d="M24.9052 136.763C24.8429 136.695 18.584 129.655 14.2201 117.637C11.6632 110.601 10.2401 103.205 10.0041 95.7237C9.70449 86.3719 11.6695 75.93 15.0353 66.4441L15.4011 66.8716C7.84453 88.1614 10.8465 106.405 14.8291 117.391C19.1463 129.299 25.3351 136.261 25.3955 136.331L24.9052 136.763Z" fill="#444053"/>
<path d="M122.712 121.817C122.712 121.817 118.302 127.193 121.804 135.321L86.5892 150.574L83.2098 151.281L81.6534 144.48L82.6942 135.898V131.207L122.712 121.817Z" fill="#D5D6DB"/>
<path d="M11.5099 118.343L60.2502 109.469L124.833 119.744L84.7196 134.167L11.5099 118.343Z" fill="#064420"/>
<path d="M11.5099 118.343L60.2502 109.469L124.833 119.744L84.7196 134.167L11.5099 118.343Z" fill="#064420"/>
<path d="M11.51 118.341C11.51 118.341 6.95152 126.966 12.2045 134.932L84.4822 150.574C84.4822 150.574 79.9957 143.703 84.7137 134.167L11.51 118.341Z" fill="#064420"/>
<path opacity="0.1" d="M11.51 118.341C11.51 118.341 6.95152 126.966 12.2045 134.932L84.4822 150.574C84.4822 150.574 79.9957 143.703 84.7137 134.167L11.51 118.341Z" fill="black"/>
<path opacity="0.1" d="M13.6637 121.331C13.6637 121.331 11.0586 127.642 13.6637 131.726V121.331Z" fill="black"/>
<path d="M84.4822 150.574L124.833 133.378C124.833 133.378 127.09 133.864 125.631 135.515C124.172 137.167 85.2604 152.225 85.2604 152.225L12.2045 134.932L84.4822 150.574Z" fill="#064420"/>
<path opacity="0.1" d="M84.4822 150.574L124.833 133.378C124.833 133.378 127.09 133.864 125.631 135.515C124.172 137.167 85.2604 152.225 85.2604 152.225L12.2045 134.932L84.4822 150.574Z" fill="black"/>
<path opacity="0.1" d="M81.1747 135.904C81.1747 135.904 77.2836 140.567 81.1747 147.562V135.904Z" fill="black"/>
<path opacity="0.1" d="M100.013 135.825L82.5596 141.64L82.6212 141.825L100.075 136.009L100.013 135.825Z" fill="black"/>
<path opacity="0.1" d="M103.509 135.246L82.5541 143.204L82.6232 143.386L103.578 135.428L103.509 135.246Z" fill="black"/>
<path opacity="0.1" d="M106.719 135.218L82.671 145.049L82.7447 145.229L106.793 135.398L106.719 135.218Z" fill="black"/>
<path opacity="0.1" d="M110.211 134.377L82.9517 146.674L83.0318 146.851L110.291 134.554L110.211 134.377Z" fill="black"/>
<path opacity="0.1" d="M113.144 134.381L83.1675 147.466L83.2454 147.644L113.222 134.559L113.144 134.381Z" fill="black"/>
<path opacity="0.1" d="M119.559 133.292L83.6195 148.795L83.6967 148.973L119.636 133.471L119.559 133.292Z" fill="black"/>
<path opacity="0.3" d="M29.6173 119.291L63.8592 112.102L84.7196 116.085L56.6606 125.12L29.6173 119.291Z" fill="white"/>
<path d="M124.833 119.744C124.833 119.744 126.604 120.457 125.565 121.558C124.526 122.66 84.7137 134.167 84.7137 134.167L124.833 119.744Z" fill="#064420"/>
<path d="M142.03 103.129C142.03 103.129 137.621 108.503 141.123 116.633L105.909 131.886L102.529 132.597L100.973 125.796L102.029 117.216V112.519L142.03 103.129Z" fill="#D5D6DB"/>
<path d="M30.8294 99.6525L79.5677 90.7806L144.153 101.055L104.039 115.479L30.8294 99.6525Z" fill="#3A3768"/>
<path d="M30.8216 99.6525C30.8216 99.6525 26.2612 108.278 31.5143 116.244L103.792 131.886C103.792 131.886 99.3074 125.009 104.031 115.477L30.8216 99.6525Z" fill="#3A3768"/>
<path opacity="0.1" d="M30.8216 99.6525C30.8216 99.6525 26.2612 108.278 31.5143 116.244L103.792 131.886C103.792 131.886 99.3074 125.009 104.031 115.477L81.1748 110.535L30.8216 99.6525Z" fill="black"/>
<path opacity="0.1" d="M32.9812 102.643C32.9812 102.643 30.378 108.952 32.9812 113.038V102.643Z" fill="black"/>
<path d="M103.8 131.886L144.153 114.69C144.153 114.69 146.408 115.175 144.948 116.827C143.489 118.479 104.578 133.537 104.578 133.537L31.522 116.244L103.8 131.886Z" fill="#3A3768"/>
<path opacity="0.1" d="M103.8 131.886L144.153 114.69C144.153 114.69 146.408 115.175 144.948 116.827C143.489 118.479 104.578 133.537 104.578 133.537L31.522 116.244L103.8 131.886Z" fill="black"/>
<path opacity="0.1" d="M100.492 117.216C100.492 117.216 96.6011 121.879 100.492 128.874V117.216Z" fill="black"/>
<path opacity="0.1" d="M119.332 117.139L101.879 122.954L101.94 123.139L119.394 117.323L119.332 117.139Z" fill="black"/>
<path opacity="0.1" d="M122.83 116.559L101.876 124.517L101.945 124.699L122.9 116.741L122.83 116.559Z" fill="black"/>
<path opacity="0.1" d="M126.038 116.529L101.99 126.359L102.063 126.539L126.112 116.708L126.038 116.529Z" fill="black"/>
<path opacity="0.1" d="M129.531 115.687L102.273 127.985L102.353 128.162L129.612 115.864L129.531 115.687Z" fill="black"/>
<path opacity="0.1" d="M132.462 115.689L102.486 128.774L102.564 128.952L132.54 115.867L132.462 115.689Z" fill="black"/>
<path opacity="0.1" d="M138.879 114.601L102.939 130.103L103.016 130.282L138.956 114.779L138.879 114.601Z" fill="black"/>
<path opacity="0.45" d="M48.9367 100.603L83.1787 93.4135L104.039 97.3967L75.9801 106.432L48.9367 100.603Z" fill="white"/>
<path d="M144.153 101.055C144.153 101.055 145.921 101.769 144.884 102.868C143.847 103.968 104.039 115.477 104.039 115.477L144.153 101.055Z" fill="#3A3768"/>
<path d="M143.859 81.7494C143.859 81.7494 139.448 91.4005 142.95 99.5282L107.736 110.506L104.364 111.219L102.807 104.419L103.848 95.8364V91.1401L143.859 81.7494Z" fill="#D5D6DB"/>
<path d="M32.6641 78.2752L81.4043 69.4014L145.989 79.6762L105.874 94.0993L32.6641 78.2752Z" fill="#064420"/>
<path d="M32.6641 78.2733C32.6641 78.2733 28.0978 86.8985 33.3509 94.8649L105.629 110.506C105.629 110.506 101.142 103.63 105.866 94.0994L32.6641 78.2733Z" fill="#064420"/>
<path opacity="0.1" d="M32.6641 78.2733C32.6641 78.2733 28.0978 86.8985 33.3509 94.8649L105.629 110.506C105.629 110.506 101.142 103.63 105.866 94.0994L32.6641 78.2733Z" fill="black"/>
<path opacity="0.1" d="M34.8178 81.2636C34.8178 81.2636 32.2127 87.5746 34.8178 91.6589V81.2636Z" fill="black"/>
<path d="M105.636 110.506L145.987 97.5852C145.987 97.5852 148.244 98.0709 146.785 99.7225C145.326 101.374 106.415 112.158 106.415 112.158L33.3586 94.8649L105.636 110.506Z" fill="#064420"/>
<path opacity="0.1" d="M105.636 110.506L145.987 97.5852C145.987 97.5852 148.244 98.0709 146.785 99.7225C145.326 101.374 106.415 112.158 106.415 112.158L33.3586 94.8649L105.636 110.506Z" fill="black"/>
<path opacity="0.1" d="M102.329 95.8364C102.329 95.8364 98.4377 100.5 102.329 107.495V95.8364Z" fill="black"/>
<path opacity="0.1" d="M121.169 95.7592L103.716 101.575L103.777 101.759L121.231 95.9436L121.169 95.7592Z" fill="black"/>
<path opacity="0.1" d="M124.666 95.1806L103.711 103.139L103.781 103.32L124.735 95.3622L124.666 95.1806Z" fill="black"/>
<path opacity="0.1" d="M127.872 95.151L103.824 104.982L103.897 105.161L127.946 95.3308L127.872 95.151Z" fill="black"/>
<path opacity="0.1" d="M131.368 94.3078L104.109 106.605L104.189 106.782L131.448 94.4849L131.368 94.3078Z" fill="black"/>
<path opacity="0.1" d="M134.3 94.3113L104.323 107.397L104.401 107.575L134.377 94.4893L134.3 94.3113Z" fill="black"/>
<path opacity="0.1" d="M140.716 93.2244L104.776 108.727L104.853 108.905L140.793 93.4028L140.716 93.2244Z" fill="black"/>
<path opacity="0.3" d="M50.7714 79.2235L85.0133 72.0342L105.874 76.0175L77.8147 85.0526L50.7714 79.2235Z" fill="white"/>
<path d="M145.987 79.6762C145.987 79.6762 147.758 80.3893 146.719 81.491C145.68 82.5927 105.874 94.0993 105.874 94.0993L145.987 79.6762Z" fill="#064420"/>
<path d="M60.3942 20.6933C60.3942 20.6933 53.0011 20.2484 53.8649 25.4285C53.8649 25.4285 53.6917 26.3437 54.5225 26.7595C54.5225 26.7595 54.5361 26.3709 55.2813 26.505C55.5472 26.5506 55.8176 26.5636 56.0867 26.5438C56.4494 26.519 56.7942 26.3772 57.0692 26.1397C57.0692 26.1397 59.149 25.2809 59.9584 21.8844C59.9584 21.8844 60.5576 21.1441 60.5421 20.9537L59.2891 21.4861C59.2891 21.4861 59.7152 22.3857 59.3806 23.1338C59.3806 23.1338 59.3397 21.5191 59.0984 21.556C59.0498 21.556 58.4506 21.8689 58.4506 21.8689C58.4506 21.8689 59.1841 23.4369 58.6296 24.5755C58.6296 24.5755 58.8397 22.6442 58.221 21.9816L57.3416 22.4945C57.3416 22.4945 58.1996 24.1131 57.6179 25.4344C57.6179 25.4344 57.7677 23.4078 57.1568 22.6189L56.3591 23.2407C56.3591 23.2407 57.1665 24.8359 56.6743 25.9318C56.6743 25.9318 56.6101 23.5729 56.1879 23.3942C56.1879 23.3942 55.4894 24.0082 55.3844 24.2608C55.3844 24.2608 55.9369 25.4266 55.5925 26.0309C55.5925 26.0309 55.3844 24.4589 55.2034 24.4512C55.2034 24.4512 54.5089 25.4926 54.4369 26.1999C54.4705 25.5405 54.6764 24.9015 55.0342 24.3463C54.6339 24.4219 54.2645 24.6131 53.9719 24.8961C53.9719 24.8961 54.0789 24.1597 55.2073 24.0956C55.2073 24.0956 55.7813 23.3048 55.935 23.2581C55.935 23.2581 54.8124 23.1629 54.1334 23.4641C54.1334 23.4641 54.7326 22.7704 56.1392 23.0755L56.9175 22.4343C56.9175 22.4343 55.4427 22.24 54.8163 22.4557C54.8163 22.4557 55.5381 21.8417 57.1295 22.2886L57.9875 21.7776C57.9875 21.7776 56.7288 21.5075 55.9797 21.6046C55.9797 21.6046 56.7696 21.1791 58.2385 21.6396L58.8494 21.3656C58.8494 21.3656 57.9292 21.1849 57.6587 21.1558C57.3883 21.1266 57.3747 21.0528 57.3747 21.0528C57.9588 20.957 58.558 21.0242 59.1062 21.2471C59.1062 21.2471 60.4195 20.7749 60.3942 20.6933Z" fill="#064420"/>
<path opacity="0.1" d="M164.404 41.9851C164.404 41.9851 157.011 41.5402 157.875 46.7203C157.875 46.7203 157.702 47.6355 158.532 48.0513C158.532 48.0513 158.546 47.6627 159.291 47.7968C159.557 47.8413 159.827 47.8544 160.097 47.8356C160.456 47.8092 160.797 47.6674 161.069 47.4315C161.069 47.4315 163.151 46.5727 163.958 43.1762C163.958 43.1762 164.558 42.4359 164.542 42.2455L163.293 42.7779C163.293 42.7779 163.719 43.6775 163.385 44.4256C163.385 44.4256 163.344 42.8109 163.104 42.8479C163.056 42.8479 162.455 43.1607 162.455 43.1607C162.455 43.1607 163.188 44.7287 162.635 45.8673C162.635 45.8673 162.846 43.936 162.225 43.2734L161.346 43.7863C161.346 43.7863 162.204 45.4049 161.622 46.7262C161.622 46.7262 161.772 44.6996 161.161 43.9107L160.365 44.5325C160.365 44.5325 161.17 46.1277 160.678 47.2236C160.678 47.2236 160.614 44.8647 160.192 44.686C160.192 44.686 159.495 45.3 159.388 45.5526C159.388 45.5526 159.941 46.7184 159.598 47.3227C159.598 47.3227 159.388 45.7508 159.209 45.743C159.209 45.743 158.515 46.7845 158.443 47.4917C158.476 46.8321 158.683 46.1928 159.042 45.6381C158.641 45.7139 158.271 45.905 157.978 46.1879C157.978 46.1879 158.087 45.4515 159.213 45.3874C159.213 45.3874 159.787 44.5966 159.941 44.548C159.941 44.548 158.82 44.4548 158.139 44.7559C158.139 44.7559 158.739 44.0623 160.145 44.3673L160.923 43.7261C160.923 43.7261 159.447 43.5318 158.822 43.7475C158.822 43.7475 159.542 43.1335 161.135 43.5804L161.991 43.0694C161.991 43.0694 160.733 42.7993 159.984 42.8964C159.984 42.8964 160.774 42.4709 162.242 42.9314L162.855 42.6574C162.855 42.6574 161.933 42.4767 161.663 42.4476C161.392 42.4184 161.379 42.3446 161.379 42.3446C161.963 42.2476 162.562 42.3149 163.11 42.5389C163.11 42.5389 164.427 42.0668 164.404 41.9851Z" fill="#064420"/>
<path opacity="0.1" d="M72.8458 52.6952C72.8458 52.6952 69.6239 46.0247 65.5227 49.3123C65.5227 49.3123 64.6375 49.6077 64.6803 50.5345C64.6803 50.5345 65.0207 50.3577 65.2639 51.0727C65.3548 51.3255 65.4749 51.5668 65.6219 51.7917C65.821 52.0965 66.1139 52.3284 66.4566 52.4523C66.4566 52.4523 68.2212 53.8474 71.5851 52.8953C71.5851 52.8953 72.5248 53.0566 72.6785 52.9439L71.6045 52.1142C71.6045 52.1142 71.0209 52.9245 70.2076 52.9963C70.2076 52.9963 71.6006 52.1744 71.4508 51.984C71.4197 51.9452 70.8672 51.5702 70.8672 51.5702C70.8672 51.5702 69.8535 52.975 68.5889 53.0469C68.5889 53.0469 70.3788 52.2891 70.6551 51.4244L69.7796 50.9076C69.7796 50.9076 68.7815 52.4465 67.3438 52.5825C67.3438 52.5825 69.1881 51.7256 69.5792 50.8085L68.6492 50.4199C68.6492 50.4199 67.6473 51.9005 66.4488 52.0073C66.4488 52.0073 68.48 50.8007 68.4294 50.3441C68.4294 50.3441 67.5519 50.0371 67.2796 50.0662C67.2796 50.0662 66.5363 51.1135 65.8359 51.1135C65.8359 51.1135 67.1064 50.1634 67.0286 50.0099C67.0286 50.0099 65.7795 49.9127 65.1219 50.2042C65.7145 49.9101 66.3739 49.7761 67.0344 49.8156C66.7724 49.5035 66.4248 49.2746 66.0344 49.1569C66.0344 49.1569 66.7309 48.8927 67.336 49.8428C67.336 49.8428 68.3087 49.9574 68.4235 50.0682C68.4235 50.0682 67.9585 49.0462 67.3651 48.6012C67.3651 48.6012 68.264 48.7819 68.6745 50.1556L69.6181 50.5287C69.6181 50.5287 69.0753 49.1452 68.5753 48.7081C68.5753 48.7081 69.4625 49.0364 69.8496 50.6511L70.7135 51.1485C70.7135 51.1485 70.338 49.9186 69.8866 49.3143C69.8866 49.3143 70.6434 49.7962 70.9567 51.3001L71.4956 51.7003C71.4956 51.7003 71.2037 50.8085 71.1065 50.5598C71.0092 50.3111 71.0578 50.2605 71.0578 50.2605C71.4279 50.7219 71.6624 51.2769 71.7349 51.8636C71.7349 51.8636 72.7758 52.7535 72.8458 52.6952Z" fill="#064420"/>
<path opacity="0.1" d="M147.513 32.5614C147.513 32.5614 144.293 25.891 140.19 29.1786C140.19 29.1786 139.306 29.4739 139.347 30.4008C139.347 30.4008 139.689 30.2259 139.931 30.939C140.021 31.1928 140.142 31.4348 140.291 31.6599C140.489 31.9641 140.781 32.1954 141.123 32.3186C141.123 32.3186 142.89 33.7137 146.252 32.7635C146.252 32.7635 147.192 32.9228 147.347 32.8101L146.279 31.9785C146.279 31.9785 145.695 32.7907 144.884 32.8626C144.884 32.8626 146.275 32.0388 146.125 31.8483C146.094 31.8095 145.542 31.4345 145.542 31.4345C145.542 31.4345 144.53 32.8393 143.263 32.9112C143.263 32.9112 145.055 32.1534 145.332 31.2907L144.443 30.7777C144.443 30.7777 143.446 32.3147 142.007 32.4526C142.007 32.4526 143.851 31.5938 144.244 30.6767L143.312 30.2881C143.312 30.2881 142.31 31.7706 141.114 31.8755C141.114 31.8755 143.143 30.6689 143.092 30.2142C143.092 30.2142 142.217 29.9053 141.944 29.9364C141.944 29.9364 141.201 30.9817 140.499 30.9817C140.499 30.9817 141.771 30.0316 141.693 29.8781C141.693 29.8781 140.444 29.7809 139.785 30.0724C140.377 29.7782 141.037 29.6442 141.697 29.6838C141.436 29.3715 141.089 29.1425 140.699 29.0251C140.699 29.0251 141.396 28.7609 142.001 29.711C142.001 29.711 142.974 29.8276 143.088 29.9383C143.088 29.9383 142.623 28.9144 142.028 28.4694C142.028 28.4694 142.927 28.652 143.337 30.0335L144.283 30.4066C144.283 30.4066 143.74 29.0212 143.24 28.584C143.24 28.584 144.127 28.9124 144.513 30.5271L145.378 31.0245C145.378 31.0245 145.001 29.7965 144.55 29.1903C144.55 29.1903 145.308 29.6721 145.62 31.176L146.158 31.5763C146.158 31.5763 145.869 30.6845 145.769 30.4357C145.67 30.187 145.721 30.1385 145.721 30.1385C146.09 30.6002 146.323 31.1551 146.396 31.7415C146.396 31.7415 147.452 32.6236 147.513 32.5614Z" fill="#064420"/>
<path opacity="0.1" d="M157.803 65.5561C157.803 65.5561 154.583 58.8838 150.474 62.1714C150.474 62.1714 149.59 62.4667 149.631 63.3935C149.631 63.3935 149.974 63.2187 150.215 63.9318C150.305 64.1855 150.425 64.4275 150.573 64.6526C150.771 64.9569 151.064 65.1882 151.406 65.3113C151.406 65.3113 153.172 66.7084 156.536 65.7563C156.536 65.7563 157.474 65.9175 157.63 65.8029L156.556 64.9732C156.556 64.9732 155.972 65.7854 155.159 65.8573C155.159 65.8573 156.55 65.0335 156.4 64.843C156.369 64.8042 155.816 64.4292 155.816 64.4292C155.816 64.4292 154.805 65.834 153.538 65.9078C153.538 65.9078 155.33 65.1481 155.606 64.2854L154.729 63.7685C154.729 63.7685 153.733 65.3074 152.293 65.4434C152.293 65.4434 154.137 64.5846 154.53 63.6675L153.598 63.2789C153.598 63.2789 152.596 64.7595 151.4 64.8664C151.4 64.8664 153.431 63.6597 153.38 63.2031C153.38 63.2031 152.503 62.8942 152.231 62.9253C152.231 62.9253 151.487 63.9706 150.785 63.9706C150.785 63.9706 152.057 63.0205 151.98 62.867C151.98 62.867 150.731 62.7698 150.071 63.0613C150.664 62.7672 151.324 62.6333 151.985 62.6727C151.724 62.3599 151.376 62.1308 150.985 62.014C150.985 62.014 151.682 61.7478 152.287 62.6999C152.287 62.6999 153.26 62.8145 153.375 62.9253C153.375 62.9253 152.91 61.9032 152.316 61.4563C152.316 61.4563 153.215 61.639 153.626 63.0205L154.569 63.3935C154.569 63.3935 154.026 62.0082 153.526 61.5729C153.526 61.5729 154.414 61.8993 154.799 63.5159L155.665 64.0114C155.665 64.0114 155.287 62.7834 154.836 62.1772C154.836 62.1772 155.594 62.6591 155.908 64.1649L156.447 64.5535C156.447 64.5535 156.155 63.6617 156.058 63.413C155.96 63.1643 156.009 63.1157 156.009 63.1157C156.379 63.5769 156.613 64.132 156.684 64.7187C156.684 64.7187 157.742 65.6144 157.803 65.5561Z" fill="#064420"/>
<path opacity="0.1" d="M39.2907 152.365C41.7609 152.365 43.7635 152.142 43.7635 151.866C43.7635 151.59 41.7609 151.366 39.2907 151.366C36.8204 151.366 34.8178 151.59 34.8178 151.866C34.8178 152.142 36.8204 152.365 39.2907 152.365Z" fill="#064420"/>
<path opacity="0.1" d="M9.96906 143.878C12.4394 143.878 14.4419 143.654 14.4419 143.379C14.4419 143.103 12.4394 142.879 9.96906 142.879C7.49878 142.879 5.49622 143.103 5.49622 143.379C5.49622 143.654 7.49878 143.878 9.96906 143.878Z" fill="#064420"/>
<path opacity="0.1" d="M61.6413 158.002C64.1116 158.002 66.1141 157.778 66.1141 157.503C66.1141 157.227 64.1116 157.003 61.6413 157.003C59.171 157.003 57.1684 157.227 57.1684 157.503C57.1684 157.778 59.171 158.002 61.6413 158.002Z" fill="#064420"/>
<path opacity="0.1" d="M176.177 145.724C178.647 145.724 180.649 145.5 180.649 145.225C180.649 144.949 178.647 144.725 176.177 144.725C173.706 144.725 171.704 144.949 171.704 145.225C171.704 145.5 173.706 145.724 176.177 145.724Z" fill="#064420"/>
<path opacity="0.1" d="M138.956 143.301C141.426 143.301 143.429 143.077 143.429 142.802C143.429 142.526 141.426 142.302 138.956 142.302C136.486 142.302 134.483 142.526 134.483 142.802C134.483 143.077 136.486 143.301 138.956 143.301Z" fill="#064420"/>
<path opacity="0.1" d="M114.878 155.118C117.799 155.118 120.168 154.712 120.168 154.211C120.168 153.71 117.799 153.304 114.878 153.304C111.956 153.304 109.588 153.71 109.588 154.211C109.588 154.712 111.956 155.118 114.878 155.118Z" fill="#064420"/>
<path d="M117.238 145.09C117.238 145.09 109.872 148.891 113.677 153.368C113.677 153.368 114.035 154.339 115.07 154.271C115.07 154.271 114.864 153.894 115.654 153.593C115.935 153.485 116.202 153.343 116.45 153.172C116.784 152.941 117.034 152.607 117.162 152.221C117.162 152.221 118.668 150.208 117.5 146.484C117.5 146.484 117.652 145.43 117.52 145.26L116.625 146.486C116.625 146.486 117.549 147.105 117.656 148.017C117.656 148.017 116.683 146.488 116.489 146.657C116.446 146.692 116.045 147.327 116.045 147.327C116.045 147.327 117.648 148.413 117.767 149.824C117.767 149.824 116.864 147.848 115.889 147.566L115.331 148.561C115.331 148.561 117.082 149.625 117.277 151.227C117.277 151.227 116.259 149.196 115.22 148.786L114.81 149.837C114.81 149.837 116.498 150.91 116.654 152.243C116.654 152.243 115.242 150.014 114.734 150.084C114.734 150.084 114.415 151.071 114.457 151.376C114.457 151.376 115.65 152.173 115.671 152.956C115.671 152.956 114.57 151.567 114.401 151.658C114.401 151.658 114.331 153.055 114.67 153.782C114.67 153.782 114.086 152.744 114.181 151.658C113.84 151.959 113.594 152.354 113.475 152.793C113.475 152.793 113.158 152.025 114.203 151.318C114.203 151.318 114.302 150.232 114.422 150.098C114.422 150.098 113.292 150.649 112.812 151.326C112.812 151.326 112.989 150.317 114.522 149.816L114.911 148.751C114.911 148.751 113.378 149.4 112.905 149.971C112.905 149.971 113.245 148.971 115.031 148.491L115.561 147.519C115.561 147.519 114.199 147.978 113.533 148.491C113.533 148.491 114.049 147.63 115.724 147.234L116.154 146.622C116.154 146.622 115.166 146.973 114.889 147.1C114.613 147.226 114.559 147.164 114.559 147.164C115.064 146.737 115.677 146.459 116.331 146.359C116.331 146.359 117.306 145.157 117.238 145.09Z" fill="#064420"/>
<path d="M139.1 73.3089C137.828 69.8561 130.824 69.5316 127.785 70.4118C125.625 71.0394 121.072 71.7467 118.64 72.1022L118.483 71.9526C118.798 71.8594 118.806 71.6301 118.767 71.29C118.744 70.8419 118.751 70.3928 118.786 69.9455C120.277 70.4079 121.604 69.314 121.604 69.314C123.355 68.5368 122.884 65.2103 123.218 64.3009C123.469 63.6209 123.74 59.6143 123.86 57.6169H123.886L123.899 56.9465C123.917 56.657 123.925 56.488 123.925 56.488C123.925 56.488 124.096 51.6032 124.43 50.6142C124.742 49.7048 124.995 45.1232 125.034 44.3965C125.034 44.3343 125.034 44.3013 125.034 44.3013L125.008 43.8777C125.026 43.5687 125.034 43.2248 125.032 42.8634C125.032 41.2021 124.858 39.1095 124.837 38.7714C124.837 38.7228 124.837 38.6645 124.837 38.5946C124.851 37.8853 124.761 34.3335 121.736 32.9908C120.621 32.4934 119.281 31.9008 117.983 31.3237C117.648 28.4383 116.884 25.5684 116.95 22.6617C116.95 22.2245 116.989 21.7873 117.031 21.352C117.031 21.4783 117.018 21.6066 117.016 21.7407C117.016 22.0224 117.016 22.3061 117.016 22.5878C117.131 18.9524 118.506 15.2975 118.378 11.7398C118.366 12.0876 118.341 12.4374 118.308 12.7871C118.375 11.5838 118.249 10.3774 117.934 9.2139C117.818 8.80392 117.66 8.38033 117.323 8.10637C117.005 7.88572 116.64 7.74143 116.257 7.68473C115.337 7.44938 114.401 7.27542 113.457 7.16399C113.314 6.72559 113.101 6.31297 112.827 5.94182C110.854 3.23712 107.932 0.695623 104.477 0.112712C102.743 -0.178744 100.749 0.0641359 99.5701 1.30185C99.4469 1.41058 99.3312 1.52742 99.2238 1.6516C98.5895 2.40744 98.3171 3.40033 97.6673 4.15423C97.6245 4.20475 97.5759 4.25138 97.5292 4.29996C96.2568 5.43663 94.2742 5.67368 92.8598 6.69378C92.6106 6.8769 92.377 7.08032 92.1614 7.30195C91.5914 7.866 91.0804 8.48642 90.636 9.15366C89.9998 10.0475 89.3461 10.9782 89.1438 12.0449C88.7372 14.1822 90.1944 16.2088 90.4648 18.3598C91.068 23.1727 85.7352 27.4435 86.7449 32.1923C87.0143 33.3589 87.6093 34.4254 88.4609 35.2681C86.3811 37.1489 84.6106 38.9734 84.6106 38.9734V39.0823H84.2818L84.3149 39.4709H84.2818L84.4628 41.5791L84.2818 44.6491C84.2818 44.6491 84.2818 44.6821 84.2818 44.7443V44.7598V44.8434C84.2818 44.8434 84.2818 44.8764 84.2818 44.9386H84.2935C84.3538 46.0636 84.5931 50.109 84.8772 50.962C85.2118 51.951 85.3811 56.8358 85.3811 56.8358C85.3811 56.8358 85.7507 63.7394 86.0893 64.6526C86.4278 65.5658 85.9472 68.8826 87.7041 69.6657C88.218 70.0594 88.8266 70.3113 89.4687 70.3962C89.3792 71.1229 89.4356 71.6495 89.7255 71.8147C89.8496 71.8875 89.9902 71.9276 90.1341 71.9312C90.0149 72.1078 89.9089 72.2929 89.817 72.485C89.1196 72.4123 88.4344 72.251 87.778 72.0051C85.8908 71.2279 79.628 69.4791 77.8089 70.7091C75.9898 71.939 71.6123 73.0543 73.6338 78.0052C75.6552 82.956 76.5969 83.0804 76.5969 83.0804C77.2191 83.5315 77.7649 84.0792 78.2136 84.7028C78.8206 85.6141 84.4764 87.699 85.8908 87.699C86.492 87.6897 87.0932 87.7196 87.6905 87.7884C87.6905 87.7884 86.1554 89.1329 86.3597 89.914C86.564 90.6952 85.8928 96.9478 85.8928 96.9478C85.8928 96.9478 87.4492 98.5139 88.1146 96.4601L88.1379 96.4912C88.2624 96.6603 88.9356 97.4239 90.2022 96.4601C90.7205 96.0674 91.2711 95.719 91.8481 95.4187L97.9805 94.5521C98.6199 94.5122 99.261 94.5076 99.9008 94.5385C100.874 94.6181 101.829 94.043 102.43 93.598C103.7 94.0799 105.129 94.6065 105.808 94.7988C107.185 95.1874 113.516 96.8837 114.996 96.3533C115.304 96.2311 115.578 96.0364 115.794 95.7859L117.207 95.8306L116.545 95.9627C116.545 95.9627 117.833 95.9841 119.584 96.0074L119.51 96.0502L121.707 96.0307C124.921 96.0599 128.532 96.0696 129.006 95.9627C129.75 95.7976 133.612 95.9141 134.75 95.9627H135.067C135.067 95.9627 139.31 95.1175 137.559 90.8176C136.213 87.5144 132.075 86.5545 130.238 86.2903C130.756 86.1873 131.201 86.1076 131.497 86.061C132.779 85.8667 135.269 84.7009 135.472 84.3026C135.674 83.9042 137.761 82.7481 138.3 82.0894C138.839 81.4307 140.378 76.7616 139.1 73.3089ZM103.953 82.9716L103.745 83.0396L103.605 83.0862L103.337 83.3505C103.123 83.2067 102.893 83.0551 102.654 82.8997C103.076 82.9249 103.51 82.9502 103.953 82.9716Z" fill="url(#paint0_linear)"/>
<path d="M116.358 62.4842C116.358 62.4842 119.335 70.2563 121.028 69.4791C122.72 68.7019 122.261 65.3987 122.584 64.4933C122.907 63.5878 123.265 56.7211 123.265 56.7211C123.265 56.7211 123.428 51.8635 123.751 50.8804C124.051 49.9769 124.294 45.4204 124.335 44.7034C124.335 44.6413 124.335 44.6082 124.335 44.6082L124.014 38.9734L122.197 38.5207L117.983 40.0751L117.399 43.4036L117.172 44.7034L117.074 45.2572L116.358 62.4842Z" fill="#BE6F72"/>
<path opacity="0.1" d="M117.339 61.1823C117.339 61.1823 120.179 63.5043 121.035 63.7083C121.891 63.9123 122.417 65.7232 122.417 65.7232" fill="black"/>
<path d="M93.0797 62.8242C93.0797 62.8242 90.1029 70.5964 88.4103 69.8192C86.7177 69.0419 87.1768 65.7388 86.8539 64.8333C86.5309 63.9279 86.1729 57.0612 86.1729 57.0612C86.1729 57.0612 86.0095 52.2036 85.6865 51.2204C85.3869 50.3169 85.1437 45.7605 85.1028 45.0435C85.1028 44.9813 85.1028 44.9483 85.1028 44.9483L85.4258 39.3135L87.243 38.8607L91.457 40.4152L92.0407 43.7436L92.2684 45.0435L92.3656 45.5973L93.0797 62.8242Z" fill="#BE6F72"/>
<path d="M112.463 21.2316H105.819V31.5743H112.463V21.2316Z" fill="#3E373A"/>
<path opacity="0.1" d="M112.463 21.2316H105.819V31.5743H112.463V21.2316Z" fill="black"/>
<path d="M91.9123 70.5653C91.9123 70.5653 89.6418 73.0582 90.4842 73.5109C91.3267 73.9636 96.7762 82.4489 96.7762 82.4489C96.7762 82.4489 114.675 84.6503 118.051 81.3472C121.426 78.044 121.358 72.143 121.358 72.143C121.358 72.143 118.646 72.7259 118.351 72.4092C118.055 72.0925 116.43 70.5653 116.43 70.5653C116.43 70.5653 93.4687 69.174 91.9123 70.5653Z" fill="#4B4B5B"/>
<path opacity="0.02" d="M91.9123 70.5653C91.9123 70.5653 89.6418 73.0582 90.4842 73.5109C91.3267 73.9636 96.7762 82.4489 96.7762 82.4489C96.7762 82.4489 114.675 84.6503 118.051 81.3472C121.426 78.044 121.358 72.143 121.358 72.143C121.358 72.143 118.646 72.7259 118.351 72.4092C118.055 72.0925 116.43 70.5653 116.43 70.5653C116.43 70.5653 93.4687 69.174 91.9123 70.5653Z" fill="black"/>
<path d="M124.135 39.055L118.298 43.7183L116.533 43.8466L115.886 43.8932L105.004 44.6898L93.7198 43.866L92.0407 43.7436L89.9006 43.5881L85.4258 39.3135C85.4258 39.3135 88.5932 35.9248 91.3676 33.6378C92.461 32.7343 93.4941 32.0038 94.247 31.7162L94.3754 31.6715C94.849 31.4871 95.2718 31.1927 95.6089 30.8127C97.7996 28.5568 99.8249 22.99 99.8249 22.99C99.8249 22.99 109.489 18.0042 108.321 24.5444C107.154 31.0847 112.666 29.4681 112.666 29.4681L114.483 30.2958L115.201 30.6242L117.031 31.4616L121.162 33.3542C124.403 34.8445 124.135 39.055 124.135 39.055Z" fill="#BE6F72"/>
<path opacity="0.1" d="M104.551 28.3159C109.351 28.3159 113.242 24.4299 113.242 19.6363C113.242 14.8427 109.351 10.9568 104.551 10.9568C99.7509 10.9568 95.8599 14.8427 95.8599 19.6363C95.8599 24.4299 99.7509 28.3159 104.551 28.3159Z" fill="black"/>
<path opacity="0.1" d="M124.148 45.2378H85.1028C85.1028 45.1756 85.1028 45.1426 85.1028 45.1426L85.4258 39.5078C85.4258 39.5078 88.5932 36.1191 91.3676 33.8322L115.882 32.8606L117.022 31.6599L121.152 33.5524C124.395 35.0407 124.135 39.2513 124.135 39.2513C124.135 39.2513 124.578 44.1303 124.148 45.2378Z" fill="black"/>
<path d="M124.148 45.0435H85.1028C85.1028 44.9813 85.1028 44.9483 85.1028 44.9483L85.4258 39.3135C85.4258 39.3135 88.5932 35.9248 91.3676 33.6379L115.882 32.6663L117.022 31.4655L121.152 33.3581C124.395 34.8464 124.135 39.057 124.135 39.057C124.135 39.057 124.578 43.936 124.148 45.0435Z" fill="#E7C7CA"/>
<path opacity="0.1" d="M98.2918 29.2427C98.2918 29.2427 104.451 37.0809 112.656 29.0814C120.86 21.082 113.564 46.9243 113.564 46.9243L95.8599 49.0228L98.2918 29.2427Z" fill="black"/>
<path d="M98.2918 29.6313C98.2918 29.6313 104.451 37.4695 112.656 29.4701C120.86 21.4706 113.564 47.313 113.564 47.313L95.8599 49.4114L98.2918 29.6313Z" fill="#E7C7CA"/>
<path opacity="0.1" d="M115.191 31.007L115.843 40.934L116.541 44.2371L117.074 46.7631C117.074 46.7631 118.436 66.1934 118.047 67.165C117.658 68.1365 118.242 68.9137 118.323 69.4305C118.405 69.9474 118.242 71.2453 118.306 71.8283C118.37 72.4112 118.306 72.6696 116.816 72.4617C115.325 72.2538 113.247 71.8924 113.247 71.8924C113.247 71.8924 107.994 72.281 106.179 71.6339C104.364 70.9869 100.926 70.985 100.926 70.985C100.926 70.985 95.7373 71.1152 94.0524 70.9209C92.3676 70.7266 91.4571 72.9941 90.3559 72.3451C89.2547 71.6961 91.6516 65.4162 92.4298 63.6014C93.2081 61.7866 91.3929 57.1894 91.3929 57.1894L93.7275 44.2546L94.247 41.3226V32.1048L94.3754 32.0601C94.849 31.8757 95.2718 31.5813 95.6089 31.2013L96.1926 40.4774L114.481 41.1263V30.6864" fill="black"/>
<path d="M115.191 30.6184L115.843 40.5454L116.541 43.8485L117.074 46.3745C117.074 46.3745 118.436 65.8048 118.047 66.7764C117.658 67.7479 118.242 68.5251 118.323 69.0419C118.405 69.5588 118.242 70.8567 118.306 71.4396C118.37 72.0226 118.306 72.281 116.816 72.0731C115.325 71.8652 113.247 71.5038 113.247 71.5038C113.247 71.5038 107.994 71.8924 106.179 71.2453C104.364 70.5983 100.926 70.5964 100.926 70.5964C100.926 70.5964 95.7373 70.7266 94.0524 70.5322C92.3676 70.3379 91.4571 72.6055 90.3559 71.9565C89.2547 71.3075 91.6516 65.0276 92.4298 63.2128C93.2081 61.398 91.3929 56.8008 91.3929 56.8008L93.7275 43.866L94.247 40.934V31.7162L94.3754 31.6715C94.849 31.4871 95.2718 31.1927 95.6089 30.8127L96.1926 40.0888L114.481 40.7377V30.2978" fill="#E7C7CA"/>
<path opacity="0.1" d="M117.294 9.90172C117.183 9.49562 117.03 9.07398 116.71 8.80196C116.406 8.58347 116.054 8.43969 115.683 8.38226C114.796 8.14921 113.894 7.97654 112.983 7.86542C112.853 7.43397 112.656 7.02552 112.399 6.6549C110.492 3.96574 107.671 1.43008 104.352 0.856881C102.615 0.55571 100.601 0.825792 99.4883 2.19369C98.8774 2.94565 98.6148 3.94242 97.9981 4.68078C96.8093 6.11474 94.6633 6.29156 93.1653 7.40103C92.3656 7.98394 91.7859 8.82916 91.2197 9.64912C90.6068 10.5371 89.9765 11.462 89.7819 12.5229C89.3928 14.6427 90.7956 16.6635 91.0543 18.8028C91.638 23.5885 86.5017 27.834 87.4725 32.5556C88.0387 35.3089 90.5854 37.248 93.2197 38.2312C94.1478 38.579 95.2081 38.9249 95.642 39.8148C95.8365 40.2034 95.8696 40.6522 96.0525 41.0447C96.6673 42.3543 98.6887 42.4048 99.7743 41.4508C100.86 40.4968 101.202 38.954 101.331 37.5142C101.852 31.2266 99.3308 25.0147 99.6245 18.7114C99.7121 16.8053 100.249 14.6427 101.959 13.78C104.261 12.6142 107.029 14.5572 109.562 14.1861C110.761 17.099 111.016 20.3138 110.29 23.3786C109.887 25.0555 109.191 26.6818 109.14 28.4111C109.064 31.0439 110.487 33.4494 111.716 35.7771C111.98 36.2124 112.157 36.6949 112.236 37.1975C112.255 37.7075 112.16 38.2154 111.957 38.6839C111.263 40.5512 110.064 42.2844 109.928 44.2721C109.888 44.5041 109.941 44.7426 110.074 44.9366C110.211 45.0661 110.388 45.1456 110.576 45.162C112.677 45.5215 114.494 43.662 115.52 41.7947C116.663 39.7324 117.329 37.4405 117.469 35.0874C117.681 31.1313 116.261 27.2394 116.349 23.2795C116.45 18.7775 118.487 14.2444 117.294 9.90172Z" fill="black"/>
<path d="M117.489 9.70743C117.378 9.30133 117.224 8.87969 116.905 8.60767C116.6 8.38918 116.248 8.2454 115.878 8.18797C114.99 7.95492 114.088 7.78225 113.177 7.67113C113.047 7.23968 112.85 6.83123 112.594 6.46061C110.687 3.77145 107.866 1.23579 104.547 0.662591C102.809 0.36142 100.796 0.631502 99.6829 1.9994C99.072 2.75136 98.8093 3.74813 98.1926 4.48649C97.0039 5.92045 94.8579 6.09727 93.3598 7.20674C92.5602 7.78965 91.9804 8.63487 91.4142 9.45483C90.8014 10.3428 90.171 11.2677 89.9765 12.3286C89.5874 14.4484 90.9901 16.4692 91.2489 18.6085C91.8325 23.3942 86.6963 27.6397 87.6671 32.3613C88.2332 35.1146 90.78 37.0537 93.4143 38.0369C94.3423 38.3847 95.4026 38.7306 95.8365 39.6205C96.0311 40.0091 96.0641 40.4579 96.247 40.8504C96.8618 42.16 98.8833 42.2106 99.9689 41.2565C101.055 40.3025 101.397 38.7597 101.525 37.3199C102.047 31.0323 99.5253 24.8204 99.8191 18.5172C99.9066 16.611 100.444 14.4484 102.154 13.5857C104.455 12.4199 107.224 14.3629 109.757 13.9918C110.956 16.9047 111.21 20.1195 110.485 23.1843C110.082 24.8612 109.385 26.4875 109.335 28.2168C109.259 30.8496 110.681 33.2551 111.911 35.5829C112.175 36.0181 112.351 36.5006 112.43 37.0032C112.45 37.5132 112.355 38.0211 112.152 38.4896C111.457 40.3569 110.259 42.0901 110.123 44.0778C110.083 44.3098 110.135 44.5483 110.269 44.7423C110.406 44.8718 110.583 44.9513 110.771 44.9677C112.872 45.3272 114.689 43.4677 115.714 41.6004C116.857 39.5381 117.524 37.2462 117.664 34.8931C117.876 30.9371 116.456 27.0451 116.543 23.0852C116.644 18.5832 118.681 14.0501 117.489 9.70743Z" fill="#3E373A"/>
<path d="M113.191 95.7393L120.909 95.9861L119.802 90.2696L113.889 90.8312L113.191 95.7393Z" fill="#C3C7D9"/>
<path d="M137.106 82.1905C136.586 82.8375 134.577 84.0033 134.382 84.3919C134.187 84.7805 131.789 85.9463 130.555 86.1407C129.322 86.335 125.432 87.1782 124.718 87.631C124.207 87.9574 120.1 88.9911 117.401 89.5643C116.67 89.737 115.93 89.8699 115.185 89.9626C114.018 90.0267 101.243 85.6879 101.243 85.6879L103.706 83.162L103.842 83.1153C104.539 82.8802 107.757 81.7941 109.543 81.2772C111.555 80.6943 113.889 78.2986 113.889 78.2986C113.889 78.2986 117.325 77.1327 117.781 77.0026C118.236 76.8724 116.613 72.4695 116.613 72.4695C116.613 72.4695 124.071 71.4358 126.989 70.5594C129.907 69.6831 136.652 70.0076 137.884 73.441C139.116 76.8743 137.633 81.5434 137.106 82.1905Z" fill="#4B4B5B"/>
<path d="M103.123 93.1356C103.123 93.1356 101.632 94.69 100.14 94.5618C98.6479 94.4336 93.4299 94.9504 93.4299 94.9504C92.4842 95.3271 91.5988 95.8396 90.8014 96.4718C89.5815 97.4317 88.9337 96.6661 88.813 96.5029L88.7916 96.4718C88.1418 98.5139 86.6515 96.9576 86.6515 96.9576C86.6515 96.9576 87.2994 90.7398 87.1009 89.9626C86.9025 89.1854 88.3831 87.8505 88.3831 87.8505L90.1341 87.4056L94.57 86.2708L100.926 88.4723L103.123 93.1356Z" fill="#E7C7CA"/>
<path opacity="0.1" d="M90.1263 87.4056L88.813 96.5029L88.7916 96.4718C88.1418 98.5139 86.6515 96.9575 86.6515 96.9575C86.6515 96.9575 87.2994 90.7398 87.1009 89.9626C86.9025 89.1854 88.3831 87.8505 88.3831 87.8505L90.1263 87.4056Z" fill="black"/>
<path opacity="0.1" d="M99.3054 61.5282C99.3054 61.5282 102.741 62.694 105.726 61.5282H99.3054Z" fill="black"/>
<path opacity="0.1" d="M111.035 63.7316C111.035 63.7316 112.461 64.4428 113.564 63.7316H111.035Z" fill="black"/>
<path opacity="0.1" d="M111.035 65.4182C111.035 65.4182 113.434 65.7388 113.889 65.0918L111.035 65.4182Z" fill="black"/>
<path opacity="0.1" d="M110.257 69.0419C110.257 69.0419 114.763 68.459 115.882 67.6818L110.257 69.0419Z" fill="black"/>
<path opacity="0.1" d="M96.5077 67.6818C96.5077 67.6818 99.037 69.1061 100.918 69.0419L96.5077 67.6818Z" fill="black"/>
<path opacity="0.1" d="M117.399 89.5643C116.668 89.737 115.929 89.87 115.183 89.9626C114.016 90.0267 101.241 85.6879 101.241 85.6879L103.704 83.162L103.841 83.1154C104.23 83.3893 104.549 83.6244 104.776 83.8032C105.848 84.6465 106.883 83.5448 107.273 83.5448C107.662 83.5448 111.033 86.3291 111.033 86.3291C111.033 86.3291 114.146 87.0422 114.666 87.6893C115.185 88.3363 117 88.2081 117.323 88.6608C117.421 88.8007 117.432 89.1446 117.399 89.5643Z" fill="black"/>
<path d="M93.4299 72.7337C93.4299 72.7337 90.2819 72.9144 88.4667 72.1508C86.6515 71.3872 80.6203 69.6249 78.8693 70.8626C77.1182 72.1003 72.9022 73.1942 74.8478 78.1179C76.7933 83.0415 77.7019 83.1698 77.7019 83.1698C78.3039 83.6206 78.8294 84.1651 79.2584 84.7825C79.842 85.6899 85.2896 87.7612 86.6515 87.7612C88.0134 87.7612 90.4123 87.7612 93.7839 90.0928C97.1556 92.4245 100.204 92.6848 100.204 92.6848C100.204 92.6848 104.485 94.4336 105.817 94.8222C107.15 95.2108 113.24 96.8934 114.668 96.3766C116.096 95.8598 117.002 92.6188 117.002 92.6188C117.002 92.6188 117.65 89.7042 117.325 89.2515C117 88.7988 115.185 88.927 114.668 88.28C114.15 87.6329 111.035 86.9198 111.035 86.9198C111.035 86.9198 107.671 84.1335 107.282 84.1335C106.893 84.1335 105.858 85.2333 104.786 84.3919C102.651 82.8123 100.407 81.384 98.072 80.1173C95.6089 78.8213 93.4299 72.7337 93.4299 72.7337Z" fill="#4B4B5B"/>
<path opacity="0.1" d="M87.1009 74.6126C87.6614 74.4983 88.2408 74.5147 88.7939 74.6606C89.347 74.8066 89.8589 75.0781 90.2897 75.454C91.8461 76.75 97.0836 79.3517 97.0836 79.3517" fill="black"/>
<path opacity="0.1" d="M126.016 74.531C126.016 74.531 119.076 75.5803 117.781 77.0045L126.016 74.531Z" fill="black"/>
<path d="M133.993 95.986H133.687C132.59 95.9472 128.872 95.8306 128.156 95.986C127.314 96.1803 116.158 95.986 116.158 95.986L118.339 95.5333C118.339 95.5333 117.53 92.7004 118.043 92.4652C118.043 92.4652 115.125 90.5455 117.325 89.2495C119.526 87.9535 121.897 88.4995 121.897 88.4995L127.421 86.6303L128.481 86.2708C128.481 86.2708 134.707 86.5953 136.392 90.87C138.077 95.1447 133.993 95.986 133.993 95.986Z" fill="#E7C7CA"/>
<path opacity="0.1" d="M133.993 95.986H133.687C135.499 94.4938 139.596 89.951 127.421 86.64L128.481 86.2805C128.481 86.2805 134.707 86.605 136.392 90.8797C138.077 95.1544 133.993 95.986 133.993 95.986Z" fill="black"/>
<path d="M122.547 90.9497C122.735 90.9497 122.888 90.7974 122.888 90.6096C122.888 90.4219 122.735 90.2696 122.547 90.2696C122.359 90.2696 122.207 90.4219 122.207 90.6096C122.207 90.7974 122.359 90.9497 122.547 90.9497Z" fill="#4B4B5B"/>
<path d="M120.569 91.5112C120.757 91.5112 120.909 91.359 120.909 91.1712C120.909 90.9834 120.757 90.8311 120.569 90.8311C120.38 90.8311 120.228 90.9834 120.228 91.1712C120.228 91.359 120.38 91.5112 120.569 91.5112Z" fill="#4B4B5B"/>
<g opacity="0.1">
<path opacity="0.1" d="M110.928 19.3157C111.004 17.1786 110.623 15.0498 109.811 13.0708C107.282 13.4478 104.512 11.4989 102.208 12.6647C100.504 13.5274 99.9689 15.69 99.8735 17.5962C99.8502 18.0994 99.8463 18.6026 99.856 19.1059C99.856 18.9271 99.856 18.7464 99.8735 18.5677C99.963 16.6616 100.498 14.499 102.208 13.6362C104.512 12.4704 107.278 14.4135 109.811 14.0423C110.499 15.7186 110.877 17.5051 110.928 19.3157Z" fill="black"/>
<path opacity="0.1" d="M91.3286 18.9602C91.3619 18.5368 91.3535 18.1111 91.3033 17.6894C91.0971 15.9795 90.1613 14.3454 89.992 12.6783C89.7741 14.6894 91.0562 16.6207 91.3033 18.6609C91.3286 18.7659 91.3286 18.8591 91.3286 18.9602Z" fill="black"/>
<path opacity="0.1" d="M101.58 36.397C101.459 37.8387 101.119 39.3795 100.023 40.3355C98.928 41.2915 96.9105 41.239 96.3015 39.9294C96.1069 39.5408 96.0778 39.0881 95.889 38.6995C95.4571 37.8096 94.3948 37.4637 93.4668 37.1159C90.8306 36.1308 88.2877 34.2013 87.7216 31.4403C87.671 31.1901 87.6365 30.937 87.6184 30.6825C87.5706 31.2609 87.6053 31.8432 87.7216 32.4118C88.2877 35.1651 90.8345 37.1023 93.4668 38.0874C94.3948 38.4352 95.4571 38.7811 95.889 39.671C96.0836 40.0596 96.1167 40.5084 96.3015 40.9009C96.9144 42.2105 98.9358 42.2611 100.023 41.307C101.111 40.353 101.449 38.8102 101.58 37.3685C101.639 36.6096 101.659 35.8483 101.64 35.0874C101.64 35.5284 101.615 35.9637 101.58 36.397Z" fill="black"/>
<path opacity="0.1" d="M116.607 22.1642C116.607 22.446 116.607 22.7258 116.607 23.0056C116.716 19.3915 118.043 15.758 117.913 12.2198C117.812 15.4918 116.681 18.8377 116.607 22.1642Z" fill="black"/>
<path opacity="0.1" d="M112.432 36.7836C112.48 36.5531 112.495 36.3169 112.477 36.0822C112.399 35.5793 112.222 35.0967 111.957 34.6618C110.833 32.5245 109.551 30.3366 109.399 27.9642C109.399 28.0652 109.385 28.1585 109.383 28.2673C109.306 30.8982 110.728 33.3056 111.957 35.6333C112.166 35.9939 112.326 36.3807 112.432 36.7836Z" fill="black"/>
<path opacity="0.1" d="M117.726 33.972C117.581 36.3261 116.91 38.6178 115.763 40.6794C114.736 42.5467 112.92 44.4061 110.817 44.0467C110.629 44.0305 110.452 43.9502 110.315 43.8194C110.276 43.7749 110.245 43.7235 110.224 43.6678C110.201 43.8194 110.181 43.9729 110.169 44.1283C110.129 44.3597 110.182 44.5977 110.315 44.7909C110.452 44.9218 110.629 45.002 110.817 45.0182C112.92 45.3777 114.736 43.5182 115.763 41.6509C116.91 39.5893 117.581 37.2976 117.726 34.9436C117.749 34.4889 117.751 34.0362 117.738 33.5834C117.734 33.7136 117.734 33.8419 117.726 33.972Z" fill="black"/>
</g>
<path opacity="0.1" d="M118.043 92.4652C118.043 92.4652 122.967 94.5288 126.215 89.9626" stroke="black" stroke-miterlimit="10"/>
<path opacity="0.1" d="M119.012 96.0715C119.012 96.0715 123.034 93.4601 128.156 95.986" stroke="black" stroke-miterlimit="10"/>
<path opacity="0.1" d="M92.0933 95.4789C92.0933 95.4789 93.782 91.6744 98.2918 94.5754" stroke="black" stroke-miterlimit="10"/>
<path opacity="0.1" d="M86.6184 39.2163L90.0621 36.1075C90.0621 36.1075 103.414 35.2331 103.967 39.7662C103.967 39.7662 108.701 34.3918 118.656 35.5887L122.868 38.9385L111.226 44.0409L99.9125 47.96L91.5796 44.2352L86.6184 39.2163Z" fill="black"/>
<path d="M86.6184 39.4106L90.0621 36.3018C90.0621 36.3018 103.414 35.4274 103.967 39.9605C103.967 39.9605 108.701 34.5861 118.656 35.783L122.868 39.1328L111.226 44.2352L99.9125 48.1543L91.5796 44.4295L86.6184 39.4106Z" fill="#D5D6DB"/>
<path opacity="0.1" d="M85.0951 39.7992L86.6184 57.9997L102.767 58.8099L102.066 40.6872L102.053 40.3821L85.0951 39.7992Z" fill="black"/>
<path d="M85.0951 39.4106L86.6184 57.611L102.767 58.4213L102.066 40.2986L102.053 39.9935L85.0951 39.4106Z" fill="#064420"/>
<path opacity="0.1" d="M123.607 39.4106L106.95 41.9055V60.1875L123.228 57.8384L123.607 39.4106Z" fill="black"/>
<path d="M123.607 39.022L106.95 41.5169V59.7989L123.228 57.4498L123.607 39.022Z" fill="#064420"/>
<path opacity="0.3" d="M119.679 43.4832L110.681 44.482L110.878 47.5442L119.674 46.5843L119.679 43.4832Z" fill="white"/>
<path d="M87.4939 67.3573L88.4103 69.8191C88.4103 69.8191 89.7722 70.985 91.2625 70.4021C92.7528 69.8191 94.0524 69.5296 94.7003 68.9623C95.3482 68.3949 96.2568 65.5445 96.2568 65.5445C96.2568 65.5445 97.1653 62.4356 98.072 61.6584C98.9786 60.8812 101.379 50.1731 98.072 51.2204C94.7645 52.2677 92.2353 61.9829 92.2353 61.9829C92.2353 61.9829 91.6516 62.694 90.8092 62.7601C89.9667 62.8262 88.2799 62.6299 87.955 63.343C87.6301 64.0561 86.5211 65.9331 87.4939 67.3573Z" fill="#BE6F72"/>
<path opacity="0.1" d="M106.95 41.9035C106.097 42.0955 105.211 42.0854 104.362 41.8742C103.514 41.663 102.727 41.2565 102.064 40.6872L102.767 58.808C102.767 58.808 104.42 60.5956 106.95 60.1875V41.9035Z" fill="black"/>
<path d="M106.95 41.5149C106.097 41.7069 105.211 41.6968 104.362 41.4856C103.514 41.2744 102.727 40.8679 102.064 40.2986L102.767 58.4193C102.767 58.4193 104.42 60.2069 106.95 59.7989V41.5149Z" fill="#064420"/>
<path opacity="0.1" d="M106.95 41.5149C106.097 41.7069 105.211 41.6968 104.362 41.4856C103.514 41.2744 102.727 40.8679 102.064 40.2986L102.767 58.4193C102.767 58.4193 104.42 60.2069 106.95 59.7989V41.5149Z" fill="black"/>
<path opacity="0.1" d="M107.339 39.4728C107.339 39.4728 114.115 37.4035 115.882 37.6949L107.339 39.4728Z" fill="black"/>
<path opacity="0.1" d="M99.7588 38.5693C99.7588 38.5693 93.1906 37.0149 92.0933 37.4559L99.7588 38.5693Z" fill="black"/>
<path opacity="0.1" d="M111.611 39.7312C111.611 39.7312 116.142 38.0719 117.781 38.8608L111.611 39.7312Z" fill="black"/>
<path opacity="0.1" d="M109.329 81.3569C110.031 80.8303 110.779 80.3667 111.562 79.9715C112.73 79.41 114.87 77.9527 114.87 77.9527" fill="black"/>
<path opacity="0.1" d="M92.0932 61.5282C92.0932 61.5282 89.2508 63.8501 88.3967 64.0542C87.5426 64.2582 87.0153 66.0691 87.0153 66.0691" fill="black"/>
<path d="M121.936 67.0115L121.03 69.4791C121.03 69.4791 119.668 70.645 118.175 70.062C116.683 69.4791 115.387 69.1896 114.738 68.6223C114.088 68.0549 113.181 65.2045 113.181 65.2045C113.181 65.2045 112.275 62.0956 111.366 61.3184C110.457 60.5412 108.059 49.8331 111.366 50.8804C114.673 51.9277 117.203 61.6429 117.203 61.6429C117.203 61.6429 117.786 62.354 118.629 62.4201C119.471 62.4861 121.158 62.2899 121.483 63.003C121.808 63.7161 122.909 65.5931 121.936 67.0115Z" fill="#BE6F72"/>
<path opacity="0.1" d="M120.347 62.4725C120.347 62.4725 122.205 63.6655 122.197 65.0917L120.347 62.4725Z" fill="black"/>
<path d="M104.582 27.8903C109.382 27.8903 113.273 24.0044 113.273 19.2108C113.273 14.4172 109.382 10.5312 104.582 10.5312C99.782 10.5312 95.891 14.4172 95.891 19.2108C95.891 24.0044 99.782 27.8903 104.582 27.8903Z" fill="#BE6F72"/>
<path d="M99.1245 16.8811C100.179 16.716 101.103 16.1039 102.111 15.7522C104.366 14.9614 106.86 15.5035 109.142 16.2166C110.018 16.4906 110.907 16.7995 111.825 16.7995C112.743 16.7995 113.718 16.4245 114.187 15.6337C114.619 14.907 114.535 13.9627 114.171 13.1991C113.808 12.4354 113.199 11.8214 112.584 11.2424C110.561 9.33435 108.051 7.55065 105.274 7.74495C104.158 7.82461 103.09 8.22294 102.062 8.66401C100.769 9.22069 99.5097 9.85395 98.2918 10.5604C97.356 11.1025 95.6225 11.8273 95.0836 12.8182C93.8579 15.0508 97.2178 17.1803 99.1245 16.8811Z" fill="#3E373A"/>
<path opacity="0.1" d="M114.187 14.8176C113.718 15.6084 112.743 15.9834 111.825 15.9834C110.907 15.9834 110.018 15.6861 109.14 15.4122C106.858 14.6991 104.366 14.155 102.109 14.9478C101.103 15.2995 100.177 15.9193 99.1226 16.0747C97.5856 16.3157 95.1108 14.9789 94.8423 13.2787C94.5408 15.2431 97.4105 16.9258 99.1226 16.6576C100.177 16.4925 101.103 15.8804 102.109 15.5307C104.366 14.7379 106.858 15.282 109.14 15.9951C110.018 16.269 110.905 16.578 111.825 16.5663C112.745 16.5547 113.718 16.1933 114.187 15.4005C114.43 14.9692 114.526 14.4706 114.459 13.9801C114.429 14.2754 114.336 14.5609 114.187 14.8176Z" fill="black"/>
<path d="M184.716 120.121C184.716 120.121 185.869 121.626 184.183 123.902C182.496 126.177 181.107 128.097 181.667 129.515C181.667 129.515 184.212 125.291 186.282 125.231C188.352 125.17 186.99 122.66 184.716 120.121Z" fill="#064420"/>
<path opacity="0.1" d="M184.716 120.121C184.816 120.266 184.895 120.425 184.951 120.593C186.971 122.963 188.048 125.176 186.105 125.231C184.295 125.283 182.126 128.514 181.607 129.329C181.623 129.394 181.643 129.459 181.667 129.523C181.667 129.523 184.212 125.299 186.282 125.238C188.352 125.178 186.99 122.66 184.716 120.121Z" fill="black"/>
<path d="M186.856 122.04C186.856 122.571 186.795 123 186.723 123C186.651 123 186.589 122.571 186.589 122.04C186.589 121.51 186.663 121.76 186.737 121.76C186.811 121.76 186.856 121.51 186.856 122.04Z" fill="#FFD037"/>
<path d="M187.593 122.674C187.128 122.926 186.722 123.08 186.687 123.016C186.651 122.952 187 122.693 187.465 122.433C187.93 122.172 187.747 122.363 187.782 122.433C187.817 122.503 188.06 122.419 187.593 122.674Z" fill="#FFD037"/>
<path d="M178.618 120.121C178.618 120.121 177.465 121.626 179.151 123.902C180.838 126.177 182.227 128.097 181.665 129.515C181.665 129.515 179.122 125.291 177.05 125.231C174.978 125.17 176.35 122.66 178.618 120.121Z" fill="#064420"/>
<path opacity="0.1" d="M178.618 120.121C178.518 120.266 178.439 120.425 178.383 120.593C176.363 122.963 175.286 125.176 177.229 125.231C179.037 125.283 181.208 128.514 181.727 129.329C181.711 129.395 181.69 129.46 181.665 129.523C181.665 129.523 179.122 125.299 177.05 125.238C174.978 125.178 176.35 122.66 178.618 120.121Z" fill="black"/>
<path d="M176.474 122.04C176.474 122.571 176.533 123 176.607 123C176.68 123 176.741 122.571 176.741 122.04C176.741 121.51 176.665 121.76 176.593 121.76C176.521 121.76 176.474 121.51 176.474 122.04Z" fill="#FFD037"/>
<path d="M175.739 122.674C176.204 122.926 176.61 123.08 176.645 123.016C176.68 122.952 176.332 122.693 175.867 122.433C175.402 122.172 175.585 122.363 175.55 122.433C175.515 122.503 175.272 122.419 175.739 122.674Z" fill="#FFD037"/>
<path opacity="0.1" d="M181.667 141.041C188.329 141.041 193.729 140.214 193.729 139.193C193.729 138.173 188.329 137.346 181.667 137.346C175.005 137.346 169.604 138.173 169.604 139.193C169.604 140.214 175.005 141.041 181.667 141.041Z" fill="#064420"/>
<path d="M187.875 127.485L187.817 127.955L187.735 128.619L187.702 128.897L187.62 129.562L187.585 129.84L187.506 130.502L186.581 138.061C186.5 138.735 185.397 139.261 184.064 139.261H179.268C177.935 139.261 176.834 138.735 176.751 138.061L175.826 130.502L175.745 129.84L175.712 129.562L175.63 128.897L175.595 128.619L175.515 127.955L175.457 127.485C175.412 127.096 176.007 126.781 176.762 126.781H186.572C187.325 126.781 187.922 127.102 187.875 127.485Z" fill="#65617D"/>
<path d="M187.817 127.955L187.737 128.619H175.597L175.515 127.955H187.817Z" fill="#9D9CB5"/>
<path d="M187.702 128.897L187.622 129.562H175.712L175.63 128.897H187.702Z" fill="#9D9CB5"/>
<path d="M187.587 129.84L187.506 130.504H175.826L175.747 129.84H187.587Z" fill="#9D9CB5"/>
</g>
<defs>
<linearGradient id="paint0_linear" x1="106.352" y1="97.5249" x2="106.352" y2="1.52423e-05" gradientUnits="userSpaceOnUse">
<stop stop-color="#808080" stop-opacity="0.25"/>
<stop offset="0.54" stop-color="#808080" stop-opacity="0.12"/>
<stop offset="1" stop-color="#808080" stop-opacity="0.1"/>
</linearGradient>
<clipPath id="clip0">
<rect width="199" height="158" fill="white"/>
</clipPath>
</defs>
</svg>
